<svg width="700" height="180" viewBox="0 0 700 180" xmlns="http://www.w3.org/2000/svg">
<defs>
  <radialGradient id="roseA" cx="35%" cy="30%" r="75%">
    <stop offset="0%" stop-color="#F3C6CF"/>
    <stop offset="100%" stop-color="#C75F75"/>
  </radialGradient>
  <radialGradient id="roseB" cx="40%" cy="35%" r="75%">
    <stop offset="0%" stop-color="#FBEDEE"/>
    <stop offset="100%" stop-color="#E7A1AD"/>
  </radialGradient>
  <linearGradient id="leafA" x1="0" y1="0" x2="1" y2="1">
    <stop offset="0%" stop-color="#9CAE85"/>
    <stop offset="100%" stop-color="#71835C"/>
  </linearGradient>
</defs>

<g opacity="0.95">
  <!-- left cluster -->
  <g transform="translate(70,70) rotate(-8)">
    <path d="M0,40 C-30,10 -20,-30 15,-25 C10,-10 20,5 40,0 C25,20 5,25 0,40 Z" fill="url(#leafA)" opacity="0.85"/>
    <path d="M20,45 C-5,30 0,0 25,5 C20,15 28,25 42,22 C35,38 30,40 20,45 Z" fill="url(#leafA)" opacity="0.7"/>
    <circle cx="10" cy="10" r="20" fill="url(#roseA)"/>
    <circle cx="10" cy="10" r="11" fill="none" stroke="#9E4359" stroke-width="1" opacity="0.5"/>
    <circle cx="40" cy="25" r="13" fill="url(#roseB)"/>
    <circle cx="60" cy="5" r="8" fill="#F6DEE2"/>
    <circle cx="-8" cy="30" r="6" fill="#E7A1AD"/>
    <g fill="#B23B54">
      <circle cx="72" cy="18" r="2.4"/>
      <circle cx="80" cy="10" r="2.4"/>
      <circle cx="78" cy="26" r="2.4"/>
    </g>
  </g>

  <!-- center small sprig -->
  <g transform="translate(330,30) rotate(4)">
    <path d="M0,30 C-15,10 -5,-15 15,-10 C10,0 15,10 25,8 C15,25 8,25 0,30 Z" fill="url(#leafA)" opacity="0.65"/>
    <circle cx="8" cy="5" r="9" fill="url(#roseB)"/>
    <circle cx="24" cy="14" r="6" fill="#F6DEE2"/>
  </g>

  <!-- right cluster -->
  <g transform="translate(560,60) rotate(10) scale(-1,1) translate(-90,0)">
    <path d="M0,40 C-30,10 -20,-30 15,-25 C10,-10 20,5 40,0 C25,20 5,25 0,40 Z" fill="url(#leafA)" opacity="0.85"/>
    <path d="M20,45 C-5,30 0,0 25,5 C20,15 28,25 42,22 C35,38 30,40 20,45 Z" fill="url(#leafA)" opacity="0.7"/>
    <circle cx="10" cy="10" r="18" fill="url(#roseB)"/>
    <circle cx="38" cy="24" r="13" fill="url(#roseA)"/>
    <circle cx="10" cy="10" r="9" fill="none" stroke="#9E4359" stroke-width="1" opacity="0.4"/>
    <circle cx="58" cy="4" r="7" fill="#F6DEE2"/>
    <circle cx="-6" cy="28" r="5" fill="#E7A1AD"/>
    <g fill="#B23B54">
      <circle cx="70" cy="16" r="2.2"/>
      <circle cx="77" cy="8" r="2.2"/>
    </g>
  </g>
</g>
</svg>
